<mxfile host="app.diagrams.net" modified="2023-03-02T08:42:43.493Z" agent="5.0 (Windows NT 10.0; Win64; x64) AppleWebKit/537.36 (KHTML, like Gecko) Chrome/110.0.0.0 Safari/537.36 Edg/110.0.1587.57" etag="4i3XC6vfJQlgSlzm-HIp" version="20.2.2" type="github">
  <diagram id="gUbnIUVaObdRojMKno1v" name="Page-1">
    <mxGraphModel dx="944" dy="579" grid="1" gridSize="10" guides="1" tooltips="1" connect="1" arrows="1" fold="1" page="1" pageScale="1" pageWidth="850" pageHeight="1100" math="0" shadow="0">
      <root>
        <mxCell id="0" />
        <mxCell id="1" parent="0" />
        <mxCell id="xggSQzvn-U6mal6rok0o-1" value="FiberRootNode" style="rounded=1;whiteSpace=wrap;html=1;sketch=1;" vertex="1" parent="1">
          <mxGeometry x="290" y="10" width="120" height="60" as="geometry" />
        </mxCell>
        <mxCell id="xggSQzvn-U6mal6rok0o-2" value="FiberRootNode" style="rounded=1;whiteSpace=wrap;html=1;sketch=1;arcSize=0;" vertex="1" parent="1">
          <mxGeometry x="490" y="230" width="120" height="60" as="geometry" />
        </mxCell>
        <mxCell id="xggSQzvn-U6mal6rok0o-5" value="" style="endArrow=classic;html=1;rounded=0;entryX=0.5;entryY=0;entryDx=0;entryDy=0;exitX=0.563;exitY=1.003;exitDx=0;exitDy=0;exitPerimeter=0;" edge="1" parent="1" source="xggSQzvn-U6mal6rok0o-1" target="xggSQzvn-U6mal6rok0o-2">
          <mxGeometry width="50" height="50" relative="1" as="geometry">
            <mxPoint x="310" y="170" as="sourcePoint" />
            <mxPoint x="360" y="120" as="targetPoint" />
          </mxGeometry>
        </mxCell>
        <mxCell id="xggSQzvn-U6mal6rok0o-6" value="current" style="edgeLabel;html=1;align=center;verticalAlign=middle;resizable=0;points=[];" vertex="1" connectable="0" parent="xggSQzvn-U6mal6rok0o-5">
          <mxGeometry x="-0.1142" y="2" relative="1" as="geometry">
            <mxPoint as="offset" />
          </mxGeometry>
        </mxCell>
      </root>
    </mxGraphModel>
  </diagram>
</mxfile>
